<svg width="291" height="291" xmlns="http://www.w3.org/2000/svg" xmlns:xlink="http://www.w3.org/1999/xlink" xml:space="preserve" overflow="hidden"><g transform="translate(-2025 -373)"><g><g><g><g><path d="M2026 374 2316 374 2316 664 2026 664 2026 374Z" fill="#FFFFFF" fill-rule="evenodd" fill-opacity="1"/><path d="M2239.04 547.331C2243.96 546.726 2249.2 545.663 2249.2 539.562L2249.2 524.138C2249.2 517.086 2241.46 516.366 2235.96 516.366L2234.81 516.366 2234.81 504.366 2297.4 504.366 2297.4 539.56C2297.4 546.495 2305.2 547.33 2310.58 547.33L2311.74 547.33 2311.74 559.272 2180.43 559.272 2180.43 556.023C2169.52 558.64 2158.5 560.366 2147.25 560.366 2137.81 560.366 2127.59 559.475 2118.79 555.821 2113.52 553.635 2109.75 550.784 2109.75 544.629L2109.75 521.287C2109.75 519.82 2109.35 518.496 2107.96 517.834 2105.75 516.769 2103.16 516.337 2100.71 516.337 2100.51 516.337 2100.28 516.366 2100.08 516.366L2100.08 504.366 2158.81 504.366 2158.81 542.178C2158.81 543.847 2159.22 545.144 2160.71 546.033 2162.87 547.299 2165.72 547.617 2168.2 547.617 2171.07 547.617 2180.43 546.609 2180.43 542.178L2180.43 521.287C2180.43 519.82 2180.02 518.525 2178.67 517.834 2176.48 516.74 2173.89 516.337 2171.45 516.337 2171.25 516.337 2171.02 516.366 2170.81 516.366L2170.81 504.366 2228.89 504.366 2228.89 539.56C2228.89 545.663 2234.12 546.726 2239.04 547.331ZM2091.45 484.625 2091.45 539.562C2091.45 546.382 2099.27 547.331 2104.6 547.331L2105.78 547.331 2105.78 559.274 2030.26 559.274 2030.26 547.331 2031.42 547.331C2036.77 547.331 2044.6 546.382 2044.6 539.562L2044.6 504.367C2044.6 497.374 2036.91 496.539 2031.42 496.539L2030.26 496.539 2030.26 484.625 2091.45 484.625ZM2297.4 477.632C2297.03 482.495 2295.96 487.099 2293.03 491.129 2288.77 496.971 2281.75 500.597 2274.5 500.597 2266.61 500.597 2258.99 496.338 2254.87 489.604 2252.63 485.948 2251.74 481.862 2251.48 477.632L2297.4 477.632Z" fill="#000000" fill-rule="evenodd" fill-opacity="1"/></g></g></g></g></g></svg>