<svg width="300" height="362" xmlns="http://www.w3.org/2000/svg" xmlns:xlink="http://www.w3.org/1999/xlink" xml:space="preserve" overflow="hidden"><g transform="translate(-1484 -282)"><g><g><g><g><path d="M115.399 249.118 115.399 249.686 115.399 279.753 115.399 280.222 115.838 280.032 136.501 271.526 155.947 287.362 156.346 287.701 156.445 287.172 161.332 251.581 161.432 250.993 160.893 251.272 137.149 263.458 115.868 249.427 115.399 249.118Z" fill="#000000" fill-rule="evenodd" fill-opacity="1" transform="matrix(1.00278 0 0 1 1484 283)"/><path d="M215.282 248.061 214.843 248.191 165.261 262.271 165.231 262.271 165.042 262.331 165.012 262.551 163.795 271.127 163.735 271.586 164.164 271.466 214.404 256.727 214.624 256.697 214.624 256.478 215.242 248.5 215.282 248.061Z" fill="#000000" fill-rule="evenodd" fill-opacity="1" transform="matrix(1.00278 0 0 1 1484 283)"/><path d="M136.531 258.283C135.918 259.509 127.343 245.399 136.531 231.902 136.531 231.902 89.3688 220.246 87.5309 193.251 87.5309 193.251 81.4054 141.717 163.48 131.287 46.4949 90.1865 55.6893 4.30006 55.6893 9.81474 111.424 33.131 148.172 77.9166 185.539 130.061 189.827 131.287 164.098 60.125 243.727 0.00199446 242.502 33.7443 248.014 48.4684 233.315 97.548 219.839 133.131 205.752 140.493 205.752 141.72 234.54 162.578 221.065 212.272 214.94 239.88L165.94 255.83 168.39 241.72C159.202 246.627 144.503 253.989 136.541 258.285" fill="#000000" fill-rule="evenodd" fill-opacity="1" transform="matrix(1.00278 0 0 1 1484 283)"/><path d="M129.799 155.827C135.924 155.827 141.437 161.349 141.437 167.484 141.437 173.619 135.924 178.527 129.799 178.527 123.674 178.527 118.774 173.619 118.774 167.484 118.774 161.349 123.674 155.827 129.799 155.827Z" fill="#FFFFFF" fill-rule="evenodd" fill-opacity="1" transform="matrix(1.00278 0 0 1 1484 283)"/><path d="M147.959 322.285 148.997 322.285C149.386 322.285 149.71 322.285 150.033 322.35 150.294 322.414 150.487 322.674 150.487 322.997 150.487 323.063 150.487 323.191 150.422 323.256 150.422 323.322 150.422 323.452 150.356 323.516L150.356 323.645C150.356 323.71 150.294 323.71 150.294 323.775 150.228 323.838 150.228 323.969 150.228 324.035 150.163 324.098 150.163 324.163 150.163 324.163L146.599 329.995 146.211 329.995 142.972 325.719C142.452 325.071 142.322 324.424 142.193 324.035 141.999 323.645 141.935 323.322 141.935 322.997 141.935 322.674 142.062 322.479 142.322 322.414 142.517 322.285 142.84 322.285 143.164 322.285L144.2 322.285 144.2 313.083 121.977 313.083 121.977 322.285 122.56 322.285C123.724 322.285 124.568 322.479 125.087 322.932 125.604 323.386 126.123 323.969 126.513 324.747 126.576 324.877 126.576 324.94 126.64 325.071 126.706 325.137 126.772 325.266 126.837 325.33L131.177 332.198 137.462 341.79 137.527 347.232 137.527 347.685C137.527 348.658 137.334 349.241 137.009 349.499 136.62 349.695 136.298 349.824 135.907 349.824L132.927 349.824 132.927 358.961 155.865 358.961 155.865 349.824 152.884 349.824C152.56 349.824 152.235 349.695 151.914 349.499 151.655 349.371 151.523 348.787 151.523 347.881L151.523 341.594 159.039 327.663C159.364 327.015 159.492 326.303 159.754 325.784 159.949 325.201 160.142 324.747 160.335 324.359 160.66 323.645 161.05 323.063 161.502 322.74 161.893 322.414 162.604 322.285 163.447 322.285L165.195 322.285 165.195 313.083 147.959 313.083 147.959 322.285Z" fill="#000000" fill-rule="evenodd" fill-opacity="1" transform="matrix(1.00278 0 0 1 1484 283)"/><path d="M193.443 347.754C192.859 348.337 192.213 348.727 191.497 348.856 191.111 348.922 190.787 348.987 190.462 348.987L186.639 348.987 186.639 340.369 190.203 340.369C191.435 340.369 192.471 340.756 193.249 341.533 193.961 342.247 194.351 343.413 194.351 344.903 194.351 346.199 194.092 347.171 193.443 347.754M186.639 323.067 188.324 323.067C189.879 323.067 191.239 323.261 192.279 323.65 193.377 324.102 193.961 325.205 193.961 327.02 193.961 328.057 193.639 329.028 193.055 329.936 192.408 330.778 191.305 331.167 189.619 331.167L186.639 331.167 186.639 323.067ZM199.663 335.249 198.886 335.249 198.886 334.666 199.211 334.666C201.608 334.666 203.812 333.759 205.755 332.009 207.763 330.26 208.736 327.862 208.736 324.687 208.736 319.957 206.839 315.635 203.802 314.173 200.656 312.658 197.391 313.161 193.573 313.153 192.666 313.088 191.823 313.088 190.918 313.088L168.43 313.088 168.43 322.29 170.438 322.29C171.087 322.29 171.605 322.355 171.995 322.615 172.448 322.807 172.641 323.586 172.641 324.882L172.641 347.172C172.641 348.469 172.448 349.246 171.995 349.504 171.605 349.7 171.087 349.828 170.438 349.828 170.375 349.828 170.31 349.764 170.31 349.764L168.43 349.828 168.43 358.966 186.12 358.966C186.12 358.966 197.953 359.06 202.565 358.61 207.498 358.127 210.16 352.744 210.16 346.524 210.16 343.609 209.255 340.952 207.568 338.683 205.884 336.416 203.227 335.249 199.662 335.249" fill="#000000" fill-rule="evenodd" fill-opacity="1" transform="matrix(1.00278 0 0 1 1484 283)"/><path d="M239.385 338.161C239.385 341.335 239.06 343.992 238.415 346.131 237.765 348.269 236.339 349.306 234.135 349.306 231.934 349.306 230.508 348.269 229.859 346.131 229.212 343.992 228.953 341.335 228.953 338.161L228.953 333.948C228.953 329.412 229.341 326.496 230.118 325.136 230.895 323.775 231.803 322.931 232.774 322.739 233.036 322.674 233.229 322.674 233.488 322.674L234.85 322.674C235.043 322.674 235.302 322.674 235.496 322.739 236.469 322.931 237.374 323.775 238.155 325.136 238.994 326.496 239.385 329.412 239.385 333.948L239.385 338.147ZM254.936 327.533C254.549 326.302 254.093 325.071 253.512 323.838 252.929 322.609 252.213 321.441 251.374 320.339 250.336 318.849 249.236 317.684 248.003 316.711 246.836 315.74 245.606 314.897 244.376 314.248 242.431 313.278 240.553 312.629 238.737 312.369 236.857 312.045 235.368 311.917 234.135 311.917 232.905 311.917 231.35 312.045 229.537 312.369 227.656 312.694 225.776 313.342 223.769 314.314 222.603 315.027 221.438 315.804 220.204 316.776 219.037 317.748 217.936 318.915 216.9 320.339 216.056 321.441 215.345 322.609 214.827 323.838 214.243 325.071 213.724 326.302 213.337 327.533 212.882 329.024 212.558 330.449 212.429 331.874 212.235 333.365 212.171 334.725 212.171 336.023 212.171 337.187 212.235 338.744 212.429 340.622 212.688 342.566 213.141 344.51 213.855 346.583 214.177 347.492 214.568 348.397 215.02 349.306 215.475 350.278 215.994 351.185 216.64 352.027 218.519 354.619 220.916 356.563 223.834 357.859 226.75 359.09 229.731 359.866 232.839 359.997L235.433 359.997C238.542 359.866 241.523 359.09 244.438 357.859 247.354 356.563 249.754 354.619 251.634 352.027 252.279 351.185 252.797 350.278 253.254 349.306 253.706 348.397 254.093 347.492 254.417 346.583 255.132 344.51 255.65 342.566 255.843 340.622 256.037 338.744 256.169 337.187 256.169 336.023 256.169 334.725 256.037 333.365 255.91 331.874 255.713 330.449 255.391 329.024 254.936 327.533" fill="#000000" fill-rule="evenodd" fill-opacity="1" transform="matrix(1.00278 0 0 1 1484 283)"/><path d="M281.907 313.09 281.907 322.292 282.881 322.292C283.268 322.292 283.591 322.292 283.917 322.357 284.241 322.421 284.37 322.681 284.37 323.004L284.37 323.263C284.303 323.329 284.303 323.458 284.303 323.523 284.303 323.588 284.241 323.588 284.241 323.652 284.241 323.717 284.241 323.717 284.176 323.782 284.176 323.846 284.111 323.976 284.111 324.042 284.111 324.105 284.044 324.17 284.044 324.17L280.546 329.808 280.159 329.808 276.853 325.725C276.335 325.078 276.204 324.431 276.076 324.042 275.883 323.652 275.817 323.329 275.817 323.004 275.817 322.681 275.945 322.486 276.204 322.421 276.463 322.292 276.722 322.292 277.047 322.292L278.148 322.292 278.148 313.09 255.793 313.09 255.793 322.292 256.443 322.292C257.606 322.292 258.45 322.486 258.968 322.939 259.486 323.393 259.941 323.976 260.33 324.754 260.394 324.884 260.46 324.947 260.46 325.078 260.522 325.143 260.588 325.272 260.654 325.337L271.409 341.667 271.409 347.693C271.409 348.664 271.216 349.248 270.892 349.507 270.566 349.702 270.18 349.831 269.789 349.831L266.874 349.831 266.874 358.968 289.746 358.968 289.746 349.831 286.831 349.831C286.441 349.831 286.12 349.702 285.861 349.507 285.536 349.379 285.405 348.794 285.405 347.888L285.405 341.213 292.921 327.67C293.245 327.023 293.443 326.31 293.636 325.791 293.829 325.208 294.022 324.754 294.22 324.366 294.542 323.653 294.932 323.07 295.384 322.746 295.84 322.421 296.485 322.292 297.328 322.292L299.079 322.292 299.079 313.09 281.906 313.09Z" fill="#000000" fill-rule="evenodd" fill-opacity="1" transform="matrix(1.00278 0 0 1 1484 283)"/><path d="M103.512 336.994 99.6261 336.994 103.448 324.94 103.968 324.94 107.336 336.994 103.507 336.994ZM125.415 349.111C124.962 348.657 124.573 347.816 124.185 346.648 124.119 346.519 124.119 346.39 124.053 346.26 124.053 346.131 123.991 346 123.991 345.871L114.659 313.083 97.0324 313.083 93.4052 325.33 87.3123 344.705C87.2479 344.899 87.1842 345.094 87.0536 345.353 86.9892 345.547 86.9254 345.807 86.8598 346.001 86.6004 346.714 86.2118 347.362 85.7575 348.01 85.6281 348.204 85.4988 348.398 85.3694 348.593 84.7214 349.371 83.8127 349.824 82.649 349.824L81.6748 349.824 81.6748 358.961 98.6527 358.961 98.6527 349.824 98.0065 349.824C97.3572 349.824 96.9684 349.759 96.7098 349.695 96.4505 349.63 96.2573 349.565 96.1929 349.435 96.0618 349.306 95.9967 349.111 95.9967 348.918 95.9967 348.658 96.0618 348.398 96.1273 348.139L96.3867 347.297 110.317 347.297 110.577 348.787C110.577 348.852 110.577 348.918 110.642 348.918L110.642 349.047C110.642 349.435 110.512 349.63 110.188 349.695 109.865 349.759 109.54 349.824 109.152 349.824L107.272 349.824 107.272 358.961 128.593 358.961 128.593 349.824 127.619 349.824C126.647 349.824 125.935 349.565 125.416 349.111" fill="#000000" fill-rule="evenodd" fill-opacity="1" transform="matrix(1.00278 0 0 1 1484 283)"/><path d="M23.9375 331.04C23.2876 331.752 22.642 332.271 21.8628 332.531 21.409 332.595 20.891 332.725 20.4379 332.789 19.9842 332.789 19.6605 332.854 19.3368 332.854L18.3657 332.854 18.3657 323.005 19.7267 323.005C21.604 323.005 22.9651 323.458 23.7437 324.431 24.5212 325.337 24.908 326.439 24.908 327.736 24.908 329.225 24.5849 330.326 23.9375 331.04M34.5002 316.2C30.4825 314.386 26.0756 313.35 21.2151 313.156 20.5658 313.09 19.9196 313.09 19.271 313.09L0.089272 313.09 0.089272 322.292 1.96845 322.292C2.94206 322.292 3.52453 322.421 3.84763 322.746 4.17257 323.07 4.36754 323.782 4.36754 324.884L4.36754 347.174C4.36754 348.276 4.17257 348.989 3.84763 349.313 3.52453 349.637 2.94209 349.831 1.96845 349.831L0.0906681 349.761 0.0906681 358.963 23.354 358.963 23.354 349.825 20.7637 349.825C19.7276 349.825 19.0783 349.567 18.8189 349.178 18.4946 348.789 18.3665 348.141 18.3665 347.169L18.3665 342.828 23.2884 342.828C28.4734 342.828 32.2967 341.92 34.7595 340.041 37.1574 338.226 38.7772 336.152 39.6195 333.949 39.9438 332.978 40.2013 332.006 40.3314 331.099 40.4626 330.192 40.5263 329.349 40.5263 328.571 40.5263 322.157 38.5178 318.074 34.5008 316.194" fill="#000000" fill-rule="evenodd" fill-opacity="1" transform="matrix(1.00278 0 0 1 1484 283)"/><path d="M72.349 343.346C72.2834 343.799 72.2178 344.123 72.1541 344.448 71.7654 346.196 71.3129 347.234 70.7292 347.622 70.2112 348.011 69.1094 348.206 67.424 348.206L60.7499 348.206 60.7499 324.749C60.7499 323.647 60.8786 322.933 61.2029 322.676 61.4623 322.416 61.9803 322.287 62.8227 322.287L65.2199 322.287 65.2199 313.085 42.4761 313.085 42.4761 322.287 44.419 322.287C45.587 322.287 46.2344 322.547 46.4949 322.999 46.6881 323.583 46.7543 324.229 46.7543 324.879L46.7543 347.169C46.7543 347.818 46.6881 348.466 46.4293 349.113 46.2344 349.567 45.587 349.825 44.419 349.825L42.4762 349.761 42.4762 358.963 79.0226 358.963 79.347 342.05 72.5428 342.05C72.4772 342.568 72.4128 342.957 72.349 343.346" fill="#000000" fill-rule="evenodd" fill-opacity="1" transform="matrix(1.00278 0 0 1 1484 283)"/></g></g></g></g></g></svg>